<?xml version="1.0" encoding="UTF-8" standalone="no"?>
<!DOCTYPE svg PUBLIC "-//W3C//DTD SVG 1.1//EN" "http://www.w3.org/Graphics/SVG/1.1/DTD/svg11.dtd">
<svg width="100%" height="100%" viewBox="0 0 809 999" version="1.1" xmlns="http://www.w3.org/2000/svg" xmlns:xlink="http://www.w3.org/1999/xlink" xml:space="preserve" xmlns:serif="http://www.serif.com/" style="fill-rule:evenodd;clip-rule:evenodd;stroke-linejoin:round;stroke-miterlimit:1.41421;">
    <g transform="matrix(1,0,0,1,-14141,-18710.7)">
        <g transform="matrix(11.647,0,0,11.647,-116567,-169156)">
            <path d="M11239.9,16215.8L11233.3,16215.8L11223.4,16180.2L11228.9,16174.8L11236.7,16202.9L11247.2,16163.7L11253.9,16163.7L11263.3,16198.7L11270,16173.7L11275.6,16178.3L11266.8,16211.9L11260.2,16211.9L11250.6,16176.2L11239.9,16215.8ZM11277.4,16145.4L11281.5,16130.1L11286.8,16135.1L11282.9,16150.2C11288.5,16156.4 11291.9,16164.6 11291.9,16173.6C11291.9,16186.9 11284.3,16198.5 11273.3,16204.3L11274.6,16197C11281.7,16191.6 11286.3,16183.1 11286.3,16173.6C11286.3,16167.4 11284.4,16161.7 11281.1,16156.9L11276.9,16173.3L11271.2,16168.7L11275.9,16151.2L11277.4,16145.4ZM11273.3,16149.3C11268.7,16146.2 11263.2,16144.4 11257.2,16144.4C11242.8,16144.4 11230.9,16154.8 11228.5,16168.5L11222.5,16173.9C11222.5,16173.8 11222.5,16173.7 11222.5,16173.6C11222.5,16154.4 11238,16138.9 11257.2,16138.9C11263.6,16138.9 11269.7,16140.6 11274.8,16143.7L11273.3,16149.3Z" style="fill:white;"/>
        </g>
    </g>
</svg>
